HIERARCHY
ROOT Hips
{
	OFFSET 0.000000 100.481300 0.000000
	CHANNELS 6 Xposition Yposition Zposition Xrotation Yrotation Zrotation
	JOINT Spine
	{
		OFFSET -0.279200 12.230698 -2.892100
		CHANNELS 3 Xrotation Yrotation Zrotation
		JOINT Spine1
		{
			OFFSET -0.325700 14.269203 -3.374200
			CHANNELS 3 Xrotation Yrotation Zrotation
			JOINT Spine2
			{
				OFFSET -0.372300 16.307602 -0.352600
				CHANNELS 3 Xrotation Yrotation Zrotation
				JOINT Neck
				{
					OFFSET -0.418800 17.814194 8.416900
					CHANNELS 3 Xrotation Yrotation Zrotation
					JOINT Head
					{
						OFFSET 0.000000 7.031097 3.806800
						CHANNELS 3 Xrotation Yrotation Zrotation
						JOINT HeadTop_End
						{
							OFFSET 0.000000 24.646606 12.978600
							CHANNELS 3 Xrotation Yrotation Zrotation
							End Site
							{
								OFFSET 0.000000 27.854965 0.000000
							}
						}
					}
				}
				JOINT LeftShoulder
				{
					OFFSET 16.952999 14.495407 -7.737500
					CHANNELS 3 Xrotation Yrotation Zrotation
					JOINT LeftArm
					{
						OFFSET 9.308998 -2.777710 0.208600
						CHANNELS 3 Xrotation Yrotation Zrotation
						JOINT LeftForeArm
						{
							OFFSET 29.972298 0.000000 0.000000
							CHANNELS 3 Xrotation Yrotation Zrotation
							JOINT LeftHand
							{
								OFFSET 26.026505 0.000000 0.000000
								CHANNELS 3 Xrotation Yrotation Zrotation
								JOINT LeftHandThumb1
								{
									OFFSET 12.240501 -7.147949 9.207150
									CHANNELS 3 Xrotation Yrotation Zrotation
									JOINT LeftHandThumb2
									{
										OFFSET 4.138618 -2.389435 2.389433
										CHANNELS 3 Xrotation Yrotation Zrotation
										JOINT LeftHandThumb3
										{
											OFFSET 2.726913 -1.574387 1.574386
											CHANNELS 3 Xrotation Yrotation Zrotation
											JOINT LeftHandThumb4
											{
												OFFSET 3.941010 -2.275345 2.275342
												CHANNELS 3 Xrotation Yrotation Zrotation
												End Site
												{
													OFFSET -0.005798 5.087799 0.009903
												}
											}
										}
									}
								}
								JOINT LeftHandIndex1
								{
									OFFSET 24.424698 -1.985611 5.953459
									CHANNELS 3 Xrotation Yrotation Zrotation
									JOINT LeftHandIndex2
									{
										OFFSET 6.426697 0.000000 0.000000
										CHANNELS 3 Xrotation Yrotation Zrotation
										JOINT LeftHandIndex3
										{
											OFFSET 5.337898 0.000000 0.000000
											CHANNELS 3 Xrotation Yrotation Zrotation
											JOINT LeftHandIndex4
											{
												OFFSET 4.409401 0.000000 0.000000
												CHANNELS 3 Xrotation Yrotation Zrotation
												End Site
												{
													OFFSET 0.000000 4.409363 0.014373
												}
											}
										}
									}
								}
								JOINT LeftHandMiddle1
								{
									OFFSET 23.810104 0.000000 0.000000
									CHANNELS 3 Xrotation Yrotation Zrotation
									JOINT LeftHandMiddle2
									{
										OFFSET 7.176498 0.000000 0.000000
										CHANNELS 3 Xrotation Yrotation Zrotation
										JOINT LeftHandMiddle3
										{
											OFFSET 6.774902 0.000000 0.000000
											CHANNELS 3 Xrotation Yrotation Zrotation
											JOINT LeftHandMiddle4
											{
												OFFSET 5.403328 0.000000 0.000000
												CHANNELS 3 Xrotation Yrotation Zrotation
												End Site
												{
													OFFSET -0.027702 5.403244 0.017414
												}
											}
										}
									}
								}
								JOINT LeftHandRing1
								{
									OFFSET 22.908401 -0.839279 -6.020567
									CHANNELS 3 Xrotation Yrotation Zrotation
									JOINT LeftHandRing2
									{
										OFFSET 6.337502 0.000000 0.000000
										CHANNELS 3 Xrotation Yrotation Zrotation
										JOINT LeftHandRing3
										{
											OFFSET 5.779297 0.000000 0.000000
											CHANNELS 3 Xrotation Yrotation Zrotation
											JOINT LeftHandRing4
											{
												OFFSET 4.965698 0.000000 0.000000
												CHANNELS 3 Xrotation Yrotation Zrotation
												End Site
												{
													OFFSET 0.000000 4.965668 0.016186
												}
											}
										}
									}
								}
								JOINT LeftHandPinky1
								{
									OFFSET 20.037003 -1.530319 -10.950146
									CHANNELS 3 Xrotation Yrotation Zrotation
									JOINT LeftHandPinky2
									{
										OFFSET 5.254700 0.000000 0.000000
										CHANNELS 3 Xrotation Yrotation Zrotation
										JOINT LeftHandPinky3
										{
											OFFSET 4.810204 0.000000 0.000000
											CHANNELS 3 Xrotation Yrotation Zrotation
											JOINT LeftHandPinky4
											{
												OFFSET 3.647202 0.000000 0.000000
												CHANNELS 3 Xrotation Yrotation Zrotation
												End Site
												{
													OFFSET 0.000000 3.647186 0.011889
												}
											}
										}
									}
								}
							}
						}
					}
				}
				JOINT RightShoulder
				{
					OFFSET -15.141001 14.495407 -7.737500
					CHANNELS 3 Xrotation Yrotation Zrotation
					JOINT RightArm
					{
						OFFSET -9.308998 -2.777710 0.208500
						CHANNELS 3 Xrotation Yrotation Zrotation
						JOINT RightForeArm
						{
							OFFSET -29.972300 0.000000 0.000000
							CHANNELS 3 Xrotation Yrotation Zrotation
							JOINT RightHand
							{
								OFFSET -26.026505 0.000000 0.000000
								CHANNELS 3 Xrotation Yrotation Zrotation
								JOINT RightHandThumb1
								{
									OFFSET -12.240601 -7.148026 9.207092
									CHANNELS 3 Xrotation Yrotation Zrotation
									JOINT RightHandThumb2
									{
										OFFSET -4.138618 -2.389435 2.389433
										CHANNELS 3 Xrotation Yrotation Zrotation
										JOINT RightHandThumb3
										{
											OFFSET -2.726974 -1.574417 1.574421
											CHANNELS 3 Xrotation Yrotation Zrotation
											JOINT RightHandThumb4
											{
												OFFSET -3.941010 -2.275345 2.275343
												CHANNELS 3 Xrotation Yrotation Zrotation
												End Site
												{
													OFFSET 0.005814 5.087799 0.009927
												}
											}
										}
									}
								}
								JOINT RightHandIndex1
								{
									OFFSET -24.424698 -1.985657 5.953444
									CHANNELS 3 Xrotation Yrotation Zrotation
									JOINT RightHandIndex2
									{
										OFFSET -6.426697 0.000000 0.000000
										CHANNELS 3 Xrotation Yrotation Zrotation
										JOINT RightHandIndex3
										{
											OFFSET -5.337898 0.000000 0.000000
											CHANNELS 3 Xrotation Yrotation Zrotation
											JOINT RightHandIndex4
											{
												OFFSET -4.409401 0.000000 0.000000
												CHANNELS 3 Xrotation Yrotation Zrotation
												End Site
												{
													OFFSET 0.000000 4.409363 0.014408
												}
											}
										}
									}
								}
								JOINT RightHandMiddle1
								{
									OFFSET -23.810097 0.000000 0.000000
									CHANNELS 3 Xrotation Yrotation Zrotation
									JOINT RightHandMiddle2
									{
										OFFSET -7.176498 0.000000 0.000000
										CHANNELS 3 Xrotation Yrotation Zrotation
										JOINT RightHandMiddle3
										{
											OFFSET -6.774902 0.000000 0.000000
											CHANNELS 3 Xrotation Yrotation Zrotation
											JOINT RightHandMiddle4
											{
												OFFSET -5.403328 0.000000 0.000000
												CHANNELS 3 Xrotation Yrotation Zrotation
												End Site
												{
													OFFSET 0.027702 5.403244 0.017457
												}
											}
										}
									}
								}
								JOINT RightHandRing1
								{
									OFFSET -22.908302 -0.839325 -6.020576
									CHANNELS 3 Xrotation Yrotation Zrotation
									JOINT RightHandRing2
									{
										OFFSET -6.337502 0.000000 0.000000
										CHANNELS 3 Xrotation Yrotation Zrotation
										JOINT RightHandRing3
										{
											OFFSET -5.779297 0.000000 0.000000
											CHANNELS 3 Xrotation Yrotation Zrotation
											JOINT RightHandRing4
											{
												OFFSET -4.965698 0.000000 0.000000
												CHANNELS 3 Xrotation Yrotation Zrotation
												End Site
												{
													OFFSET 0.000000 4.965668 0.016226
												}
											}
										}
									}
								}
								JOINT RightHandPinky1
								{
									OFFSET -20.037003 -1.530334 -10.950259
									CHANNELS 3 Xrotation Yrotation Zrotation
									JOINT RightHandPinky2
									{
										OFFSET -5.254700 0.000000 0.000000
										CHANNELS 3 Xrotation Yrotation Zrotation
										JOINT RightHandPinky3
										{
											OFFSET -4.810204 0.000000 0.000000
											CHANNELS 3 Xrotation Yrotation Zrotation
											JOINT RightHandPinky4
											{
												OFFSET -3.647202 0.000000 0.000000
												CHANNELS 3 Xrotation Yrotation Zrotation
												End Site
												{
													OFFSET 0.000000 3.647186 0.011917
												}
											}
										}
									}
								}
							}
						}
					}
				}
			}
		}
	}
	JOINT LeftUpLeg
	{
		OFFSET 15.427100 -6.655098 0.678600
		CHANNELS 3 Xrotation Yrotation Zrotation
		JOINT LeftLeg
		{
			OFFSET 4.081073 -39.591068 13.024000
			CHANNELS 3 Xrotation Yrotation Zrotation
			JOINT LeftFoot
			{
				OFFSET -4.081074 -37.707932 -15.979700
				CHANNELS 3 Xrotation Yrotation Zrotation
				JOINT LeftToeBase
				{
					OFFSET 5.346399 -15.068900 20.645000
					CHANNELS 3 Xrotation Yrotation Zrotation
					JOINT LeftToe_End
					{
						OFFSET 2.754700 0.931300 11.300900
						CHANNELS 3 Xrotation Yrotation Zrotation
						End Site
						{
							OFFSET 0.000000 11.669021 0.000000
						}
					}
				}
			}
		}
	}
	JOINT RightUpLeg
	{
		OFFSET -15.569500 -6.655098 0.678600
		CHANNELS 3 Xrotation Yrotation Zrotation
		JOINT RightLeg
		{
			OFFSET -4.081825 -39.591045 13.023800
			CHANNELS 3 Xrotation Yrotation Zrotation
			JOINT RightFoot
			{
				OFFSET 4.081824 -37.707954 -15.979600
				CHANNELS 3 Xrotation Yrotation Zrotation
				JOINT RightToeBase
				{
					OFFSET -5.346400 -15.068900 20.645000
					CHANNELS 3 Xrotation Yrotation Zrotation
					JOINT RightToe_End
					{
						OFFSET -2.754700 0.931300 11.300900
						CHANNELS 3 Xrotation Yrotation Zrotation
						End Site
						{
							OFFSET 0.000000 11.669021 0.000000
						}
					}
				}
			}
		}
	}
}
MOTION
Frames: 5
Frame Time: 0.033333
0.903313 78.879128 -1.155456 -11.457981 -31.856163 -5.069975 13.792455 -4.563236 8.082501 2.026187 -2.342327 0.827093 2.015420 -2.337424 0.867629 13.152139 13.393344 -6.449621 16.976311 9.989555 4.216569 -0.000001 -0.000001 -0.000002 0.252782 -11.739860 -12.807360 -52.262798 -16.401405 -40.618107 0.000032 -60.457618 0.000019 -132.812263 -1.600846 24.364007 4.703206 9.563376 3.109661 19.473197 -1.474908 7.636925 -4.536197 -9.613089 1.492957 -0.000000 0.000004 -0.000002 -0.212819 3.933696 -36.747138 2.942209 5.078942 -60.145410 0.513679 2.400826 -24.150490 0.000000 0.000000 -0.000001 0.405913 5.507030 -52.453182 3.387155 5.308633 -65.057470 0.282017 1.797435 -17.832400 -0.000001 -0.000000 0.000000 -0.074381 5.736783 -61.061440 4.055033 5.569493 -72.094880 0.582666 2.548984 -25.748000 0.000002 0.000001 0.000004 -6.565562 4.545161 -72.425441 3.299620 5.267205 -64.107643 0.175346 1.424017 -14.038878 -0.000001 0.000000 -0.000002 0.505175 5.257285 11.859101 -34.604218 63.980629 57.403492 0.000177 97.079726 -0.000169 -51.294611 -27.738985 -28.919718 8.377128 -4.904130 11.022007 21.620194 -18.183891 -18.379230 -0.702896 -49.821213 -32.535155 0.000001 0.000000 0.000001 -0.920044 1.683574 12.434972 0.748105 -2.533462 32.898296 0.615642 -2.316058 29.767826 -0.000000 0.000000 -0.000001 3.413057 -7.186253 51.650266 6.296816 -4.359576 110.634667 0.248724 -1.503067 18.790288 -0.000000 0.000000 -0.000000 -3.349049 -2.600437 57.010585 5.440871 -4.590888 99.698181 1.689399 -3.590703 50.382245 -0.000001 0.000000 -0.000001 -3.996460 -3.303955 64.593864 4.058880 -4.618641 82.610537 2.315548 -4.026785 59.787234 -0.000000 -0.000000 0.000002 -25.910319 31.510490 12.004108 72.173953 -6.379715 4.319788 12.471990 3.220318 17.203865 -48.015332 4.488213 -5.927058 0.000000 0.000001 -0.000000 -27.627159 -3.710122 9.522303 52.811631 -6.589156 -11.052913 -15.777559 0.049496 1.427940 -11.330443 0.000013 -0.000002 -0.000000 -0.000002 -0.000000 
0.848744 79.944359 2.457183 -11.801711 -32.314906 -5.022449 14.174627 -4.154618 7.644898 2.079273 -2.291354 0.802917 2.069136 -2.285548 0.846632 13.178913 13.402151 -6.472252 16.802235 9.986187 4.348495 0.000002 -0.000000 -0.000000 0.261613 -11.586193 -12.740541 -52.420657 -16.856881 -40.553524 0.000009 -60.267451 0.000014 -133.033398 -1.595416 24.316913 4.623069 9.294601 3.107685 19.473195 -1.474907 7.636927 -4.536189 -9.613087 1.492959 0.000001 -0.000003 -0.000000 -0.258377 3.878881 -36.835179 2.942262 5.078989 -60.146209 0.513674 2.400826 -24.150490 0.000001 0.000001 0.000001 0.405913 5.507031 -52.453186 3.387154 5.308636 -65.057470 0.282014 1.797434 -17.832396 -0.000002 0.000002 -0.000002 -0.074381 5.736782 -61.061434 4.065549 5.572879 -72.203309 0.582667 2.548982 -25.748001 0.000002 0.000006 -0.000001 -6.301069 4.582728 -72.192320 3.330816 5.282167 -64.447083 0.193566 1.494960 -14.754349 0.000001 -0.000001 -0.000003 0.502550 5.301978 12.051138 -35.023666 63.916582 57.733916 0.000933 97.106773 -0.000882 -51.120066 -27.927337 -28.924437 8.377128 -4.904129 11.022008 21.620194 -18.183891 -18.379235 -0.702894 -49.821217 -32.535162 -0.000002 0.000002 0.000001 -0.925473 1.675828 12.513847 0.764921 -2.559226 33.276429 0.615642 -2.316058 29.767826 -0.000001 0.000000 -0.000000 3.413058 -7.186255 51.650263 6.296816 -4.359576 110.634667 0.248725 -1.503067 18.790288 -0.000000 0.000000 -0.000000 -3.349048 -2.600437 57.010582 5.440871 -4.590889 99.698181 1.689398 -3.590704 50.382245 -0.000000 0.000001 0.000001 -3.996460 -3.303955 64.593864 4.058881 -4.618640 82.610537 2.315548 -4.026786 59.787234 -0.000000 -0.000000 -0.000001 -30.778714 29.363041 14.872414 71.284628 -5.687954 4.385469 6.345371 3.995937 17.919666 -27.860401 3.612257 -12.104261 0.000000 -0.000001 0.000000 -23.952565 -2.574964 7.637817 52.114992 -5.767299 -10.683113 -18.470602 -0.482560 2.518116 -11.291334 -0.000025 0.000000 -0.000000 -0.000000 -0.000001 
0.749115 81.227242 5.866014 -11.707456 -32.596180 -4.671126 14.181830 -3.978312 7.089428 2.088741 -2.276038 0.781956 2.078997 -2.270207 0.825831 13.172414 13.391645 -6.415574 16.485619 9.917603 4.560312 -0.000000 -0.000001 -0.000001 0.266802 -11.501070 -12.697612 -52.522126 -17.163285 -40.409715 0.000047 -60.221908 0.000058 -133.117450 -1.616620 24.395504 4.532304 9.015630 3.102742 19.473199 -1.474907 7.636926 -4.536194 -9.613090 1.492959 0.000001 -0.000002 0.000000 -0.306403 3.821481 -36.927694 2.942444 5.079083 -60.147978 0.513679 2.400826 -24.150492 0.000004 0.000001 -0.000001 0.405913 5.507032 -52.453182 3.387156 5.308634 -65.057463 0.282011 1.797433 -17.832398 -0.000002 -0.000000 0.000002 -0.074381 5.736780 -61.061434 4.076621 5.576401 -72.317155 0.582662 2.548985 -25.748005 0.000001 -0.000001 0.000002 -6.023815 4.624491 -71.947423 3.363677 5.297703 -64.803599 0.213661 1.569269 -15.505761 0.000001 -0.000001 -0.000003 0.495386 5.452857 12.312088 -35.110120 63.803509 57.741449 0.001039 97.174221 -0.001004 -51.034231 -28.045602 -28.934894 8.377128 -4.904130 11.022007 21.620195 -18.183891 -18.379233 -0.702893 -49.821217 -32.535162 -0.000002 0.000000 0.000003 -0.931220 1.667643 12.596687 0.782739 -2.586162 33.673598 0.615642 -2.316058 29.767832 0.000000 -0.000000 -0.000001 3.413057 -7.186255 51.650263 6.296816 -4.359576 110.634673 0.248725 -1.503068 18.790289 0.000000 0.000000 -0.000000 -3.349050 -2.600437 57.010582 5.440870 -4.590889 99.698181 1.689398 -3.590703 50.382238 -0.000000 -0.000000 0.000001 -3.996459 -3.303955 64.593864 4.058880 -4.618640 82.610530 2.315549 -4.026785 59.787234 -0.000000 -0.000001 0.000002 -33.914625 27.942073 16.453159 66.714590 -6.302998 4.273957 1.914357 3.563247 17.386953 -15.955978 0.759326 -10.951601 -0.000000 0.000001 -0.000000 -20.371017 -1.509381 5.604848 50.517790 -5.106375 -10.266691 -20.528929 -0.962152 3.732238 -11.172102 -0.000003 -0.000005 -0.000000 0.000001 0.000000 
0.582480 82.658638 8.953178 -11.357967 -32.763092 -4.127782 13.948433 -3.986877 6.445801 2.067994 -2.287165 0.767928 2.058493 -2.281462 0.811176 13.140002 13.391380 -6.327808 16.180127 9.920935 4.767601 0.000002 -0.000001 -0.000000 0.271551 -11.453251 -12.654858 -52.543153 -17.280631 -40.208176 -0.000022 -60.336983 -0.000032 -133.088586 -1.657573 24.579440 4.437337 8.724707 3.097110 19.473195 -1.474911 7.636927 -4.536196 -9.613085 1.492959 -0.000002 -0.000001 0.000000 -0.356708 3.761754 -37.024297 2.942602 5.079166 -60.149767 0.513684 2.400827 -24.150490 -0.000001 -0.000000 -0.000004 0.405913 5.507033 -52.453186 3.387153 5.308634 -65.057470 0.282013 1.797432 -17.832398 -0.000001 0.000002 0.000000 -0.074381 5.736784 -61.061434 4.088154 5.580048 -72.435850 0.582664 2.548983 -25.748003 -0.000001 0.000002 -0.000000 -5.735123 4.670630 -71.691933 3.398092 5.313681 -65.175646 0.235649 1.646471 -16.289837 0.000001 0.000001 0.000001 0.494682 5.466103 12.313488 -35.549512 63.721478 58.314454 0.001044 97.140719 -0.001016 -50.932311 -27.970605 -28.866288 8.377128 -4.904128 11.022008 21.620195 -18.183891 -18.379233 -0.702896 -49.821210 -32.535159 0.000001 0.000001 0.000004 -0.937175 1.659091 12.683112 0.801541 -2.614122 34.087978 0.615642 -2.316058 29.767829 -0.000000 0.000000 0.000000 3.413058 -7.186253 51.650263 6.296816 -4.359576 110.634673 0.248725 -1.503067 18.790289 0.000000 0.000000 -0.000000 -3.349050 -2.600436 57.010582 5.440871 -4.590888 99.698181 1.689398 -3.590705 50.382242 -0.000000 0.000001 0.000000 -3.996460 -3.303955 64.593864 4.058880 -4.618639 82.610537 2.315549 -4.026786 59.787241 -0.000000 -0.000000 0.000000 -35.584572 27.227535 17.072254 58.924069 -7.216459 3.903823 -0.193208 2.537602 16.841153 -12.993741 0.141757 -4.111219 -0.000000 0.000001 0.000000 -16.922649 -0.624343 3.617294 48.179741 -4.644070 -9.874860 -21.906884 -1.333839 4.964441 -11.008656 -0.000042 -0.000003 -0.000001 0.000001 0.000001 
0.420690 84.091713 11.714733 -10.955760 -32.887508 -3.512113 13.634420 -4.108133 5.725415 2.035867 -2.305548 0.761548 2.026435 -2.300063 0.803957 13.083221 13.408478 -6.266020 15.949663 10.004312 4.943757 -0.000002 -0.000001 0.000001 0.251022 -11.444294 -12.648589 -52.500683 -17.245336 -39.927920 -0.000001 -60.578696 -0.000004 -132.973114 -1.696142 24.862770 4.338487 8.423105 3.090755 19.473199 -1.474910 7.636927 -4.536194 -9.613085 1.492959 -0.000000 0.000000 -0.000000 -0.409107 3.700004 -37.124547 2.942768 5.079278 -60.151611 0.513680 2.400826 -24.150492 0.000002 -0.000001 -0.000002 0.405914 5.507027 -52.453182 3.387156 5.308633 -65.057463 0.282015 1.797431 -17.832396 -0.000000 -0.000001 0.000000 -0.074381 5.736781 -61.061434 4.100156 5.583811 -72.559080 0.582663 2.548983 -25.748001 -0.000000 0.000003 0.000003 -5.436298 4.721217 -71.426888 3.433874 5.330036 -65.561531 0.259601 1.726268 -17.103282 -0.000000 0.000001 0.000001 0.473236 5.451528 12.306835 -36.044681 63.644331 59.091170 0.000163 97.066100 -0.000164 -50.773693 -27.886648 -28.725334 8.377127 -4.904130 11.022010 21.620197 -18.183891 -18.379233 -0.702897 -49.821206 -32.535155 0.000000 0.000001 0.000003 -0.943344 1.650219 12.772788 0.821252 -2.643004 34.517888 0.615642 -2.316057 29.767829 0.000000 0.000000 -0.000001 3.413058 -7.186255 51.650266 6.296815 -4.359576 110.634667 0.248725 -1.503067 18.790289 -0.000000 -0.000000 0.000000 -3.349050 -2.600437 57.010582 5.440870 -4.590888 99.698181 1.689398 -3.590703 50.382242 0.000000 -0.000001 -0.000001 -3.996460 -3.303955 64.593864 4.058881 -4.618641 82.610537 2.315549 -4.026787 59.787241 -0.000000 -0.000001 -0.000001 -36.090890 26.870646 17.226243 48.717393 -7.843342 3.383977 1.202522 1.560950 14.830590 -9.916846 0.000000 -0.000012 0.000000 0.000000 -0.000000 -13.750929 0.060188 1.780259 45.616381 -4.438350 -9.489846 -22.819741 -1.539878 5.713253 -10.855585 0.000014 -0.000003 0.000000 -0.000000 -0.000000 
